<?xml version="1.0" encoding="UTF-8" standalone="no"?>
<svg
   version="1.0"
   width="300.000000pt"
   height="252.000000pt"
   viewBox="0 0 300.000000 252.000000"
   preserveAspectRatio="xMidYMid meet"
   id="svg5"
   sodipodi:docname="rockclimb.svg"
   inkscape:version="1.4.2 (f4327f4, 2025-05-13)"
   xmlns:inkscape="http://www.inkscape.org/namespaces/inkscape"
   xmlns:sodipodi="http://sodipodi.sourceforge.net/DTD/sodipodi-0.dtd"
   xmlns="http://www.w3.org/2000/svg"
   xmlns:svg="http://www.w3.org/2000/svg">
  <defs
     id="defs5" />
  <sodipodi:namedview
     id="namedview5"
     pagecolor="#ffffff"
     bordercolor="#000000"
     borderopacity="0.25"
     inkscape:showpageshadow="2"
     inkscape:pageopacity="0.0"
     inkscape:pagecheckerboard="0"
     inkscape:deskcolor="#d1d1d1"
     inkscape:document-units="pt"
     inkscape:zoom="1"
     inkscape:cx="174.5"
     inkscape:cy="206.5"
     inkscape:window-width="2560"
     inkscape:window-height="1369"
     inkscape:window-x="-8"
     inkscape:window-y="-8"
     inkscape:window-maximized="1"
     inkscape:current-layer="svg5" />
  <metadata
     id="metadata1">
Created by potrace 1.10, written by Peter Selinger 2001-2011
</metadata>
  <g
     transform="matrix(0.1,0,0,-0.1,0,252)"
     fill="currentColor"
     stroke="20"
     id="g5"
     style="mix-blend-mode:normal;fill-opacity:1;fill-rule:nonzero;stroke:currentColor;stroke-width:50;stroke-linejoin:miter;stroke-dasharray:none;stroke-opacity:1">
    <path
       d="m 991,2373 -524,-3 -34,-26 c -45,-34 -45,-82 -2,-147 52,-79 80,-92 178,-89 46,1 92,0 102,-3 11,-4 37,-37 59,-75 23,-37 49,-75 58,-83 29,-26 479,-215 602,-253 230,-71 366,-117 411,-140 60,-30 92,-69 146,-179 l 44,-90 -6,-155 c -5,-107 -3,-164 5,-185 17,-44 64,-90 163,-157 49,-33 106,-77 126,-99 81,-82 168,-298 177,-434 3,-44 7,-90 10,-103 5,-27 59,-62 95,-62 57,0 54,-62 51,1154 -2,616 -5,1123 -7,1125 -6,5 -1042,8 -1654,4 z M 2608,1233 c 2,-1058 1,-1093 -16,-1093 -34,0 -49,31 -55,115 -7,91 -55,246 -108,347 -43,79 -118,155 -237,237 -131,90 -133,97 -130,304 l 3,163 -47,96 c -83,167 -118,190 -458,293 -201,61 -229,71 -460,169 -241,103 -239,102 -291,181 -62,94 -83,105 -191,105 -78,0 -90,3 -116,25 -42,35 -67,91 -54,120 6,13 21,25 34,28 13,2 496,4 1073,3 l 1050,-1 z"
       id="path1"
       style="fill:currentColor;fill-opacity:1;fill-rule:nonzero;stroke:currentColor;stroke-width:50;stroke-linejoin:miter;stroke-dasharray:none;stroke-opacity:1" />
    <path
       d="m 763,1876 -28,-24 3,-254 4,-253 -55,-55 c -47,-47 -56,-63 -66,-112 -11,-51 -10,-62 7,-100 21,-46 262,-321 286,-326 20,-4 83,54 163,150 76,91 82,64 -49,207 -43,46 -78,87 -78,91 0,4 41,34 91,66 82,54 95,67 148,149 32,50 72,115 90,146 52,93 38,153 -40,165 -44,7 -60,-8 -150,-144 -40,-59 -83,-120 -98,-135 -22,-25 -70,-57 -84,-57 -3,0 -2,60 1,133 2,73 1,177 -3,231 -6,85 -10,102 -31,123 -30,30 -75,30 -111,-1 z m 93,-43 c 4,-10 9,-112 10,-227 3,-193 4,-211 23,-229 43,-43 117,13 222,169 81,121 93,134 125,134 32,0 41,-37 18,-81 -9,-19 -46,-80 -81,-136 -58,-93 -71,-106 -147,-158 -89,-61 -112,-89 -101,-125 4,-12 40,-59 81,-105 41,-46 74,-89 74,-97 0,-13 -97,-132 -128,-156 -9,-6 -23,-12 -33,-12 -21,0 -216,216 -246,273 -33,63 -18,117 53,197 l 54,61 v 248 c 0,136 3,251 7,254 14,14 61,7 69,-10 z"
       id="path2"
       style="fill:currentColor;fill-opacity:1;fill-rule:nonzero;stroke:currentColor;stroke-width:50;stroke-linejoin:miter;stroke-dasharray:none;stroke-opacity:1" />
    <path
       d="m 422,1520 c -61,-37 -91,-111 -72,-178 21,-80 104,-133 185,-118 53,10 112,68 123,119 10,50 0,101 -25,135 -45,60 -147,81 -211,42 z m 146,-40 c 75,-46 69,-166 -12,-204 -44,-21 -74,-20 -109,3 -41,27 -59,58 -61,102 -2,93 100,149 182,99 z"
       id="path3"
       style="fill:currentColor;fill-opacity:1;fill-rule:nonzero;stroke:currentColor;stroke-width:50;stroke-linejoin:miter;stroke-dasharray:none;stroke-opacity:1" />
    <path
       d="M 1393,1218 C 1362,1189 1280,1089 1210,995 1079,821 1027,763 977,738 l -29,-14 36,-32 c 40,-35 85,-50 361,-123 l 189,-50 114,-97 c 198,-168 231,-192 268,-192 64,0 97,27 109,91 9,49 -16,78 -200,240 l -160,139 -115,36 c -163,50 -200,64 -200,76 0,13 118,164 158,202 l 31,29 98,-9 c 54,-5 140,-9 190,-9 88,0 94,1 120,27 21,21 28,38 28,68 0,58 -32,86 -122,104 -66,14 -333,46 -383,46 -12,0 -46,-24 -77,-52 z m 386,-23 c 119,-20 145,-32 149,-68 7,-63 -37,-75 -227,-57 -75,7 -150,10 -165,6 -32,-8 -103,-79 -166,-165 -60,-82 -63,-94 -38,-126 24,-30 36,-36 173,-77 55,-17 113,-37 128,-45 35,-17 298,-243 326,-279 37,-48 17,-114 -34,-114 -30,0 -68,27 -226,161 -74,63 -148,120 -164,126 -17,7 -102,31 -190,53 -200,52 -286,78 -305,96 -12,12 -6,22 47,77 33,34 107,124 163,201 56,76 124,161 151,189 l 48,50 118,-6 c 65,-4 160,-14 212,-22 z"
       id="path4"
       style="fill:currentColor;fill-opacity:1;fill-rule:nonzero;stroke:currentColor;stroke-width:50;stroke-linejoin:miter;stroke-dasharray:none;stroke-opacity:1" />
    <path
       d="m 843,645 c -29,-13 -53,-27 -53,-32 0,-21 54,-170 66,-183 12,-12 21,-12 70,5 32,11 66,26 76,35 19,15 19,16 -2,80 -34,101 -46,120 -78,119 -15,0 -51,-11 -79,-24 z m 102,-63 c 31,-72 30,-80 -8,-98 -19,-9 -42,-14 -51,-11 -17,7 -51,111 -41,127 7,11 66,29 78,23 4,-2 14,-21 22,-41 z"
       id="path5"
       style="fill:currentColor;fill-opacity:1;fill-rule:nonzero;stroke:currentColor;stroke-width:50;stroke-linejoin:miter;stroke-dasharray:none;stroke-opacity:1" />
  </g>
</svg>
