<?xml version="1.0" encoding="UTF-8" standalone="no"?>
<svg
   version="1.0"
   width="300.000000pt"
   height="300.000000pt"
   viewBox="0 0 300.000000 300.000000"
   preserveAspectRatio="xMidYMid meet"
   id="svg7"
   sodipodi:docname="zipline.svg"
   inkscape:version="1.4.2 (f4327f4, 2025-05-13)"
   xmlns:inkscape="http://www.inkscape.org/namespaces/inkscape"
   xmlns:sodipodi="http://sodipodi.sourceforge.net/DTD/sodipodi-0.dtd"
   xmlns="http://www.w3.org/2000/svg"
   xmlns:svg="http://www.w3.org/2000/svg">
  <defs
     id="defs7" />
  <sodipodi:namedview
     id="namedview7"
     pagecolor="#ffffff"
     bordercolor="currentColor"
     borderopacity="0.25"
     inkscape:showpageshadow="2"
     inkscape:pageopacity="0.0"
     inkscape:pagecheckerboard="0"
     inkscape:deskcolor="#d1d1d1"
     inkscape:document-units="pt"
     inkscape:zoom="1.45875"
     inkscape:cx="56.55527"
     inkscape:cy="241.64524"
     inkscape:window-width="2560"
     inkscape:window-height="1369"
     inkscape:window-x="-8"
     inkscape:window-y="-8"
     inkscape:window-maximized="1"
     inkscape:current-layer="svg7" />
  <metadata
     id="metadata1">
Created by potrace 1.10, written by Peter Selinger 2001-2011
</metadata>
  <g
     transform="translate(0.000000,300.000000) scale(0.100000,-0.100000)"
     fill="currentColor"
     stroke="none"
     id="g7"
     style="stroke-width:39.99999998;stroke-dasharray:none;fill:currentColor;fill-opacity:1;stroke:currentColor;stroke-opacity:1">
    <path
       d="M77 2882 c-20 -22 -22 -52 -4 -75 11 -15 516 -149 932 -248 122 -28 318 -78 320 -81 2 -2 -19 -54 -46 -117 -30 -70 -46 -118 -40 -124 5 -5 52 -7 105 -5 l96 3 0 -154 0 -155 30 29 30 29 0 125 0 126 96 -3 c53 -2 100 0 106 6 6 6 3 24 -7 49 -12 31 -24 42 -51 51 -27 8 -34 8 -31 -1 21 -50 23 -47 -47 -47 l-66 0 0 30 c0 34 -22 49 -45 30 -8 -7 -15 -23 -15 -36 0 -23 -3 -24 -65 -24 -36 0 -65 2 -65 4 0 5 71 160 76 165 2 2 21 -1 41 -7 76 -23 1446 -362 1464 -362 24 0 49 27 49 54 0 48 22 40 -625 207 -104 27 -346 88 -537 136 -192 48 -348 92 -347 98 0 5 9 28 19 50 l18 40 10 -26 c7 -16 23 -29 47 -36 28 -9 35 -9 31 0 -2 7 -20 49 -38 94 -22 56 -38 82 -48 80 -8 -1 -32 -47 -55 -104 -30 -78 -44 -101 -55 -97 -13 5 -172 46 -1036 263 -111 28 -208 51 -216 51 -8 0 -22 -8 -31 -18z m693 -186 c344 -87 594 -145 607 -141 13 3 33 -1 46 -10 17 -11 454 -128 597 -160 8 -2 96 -25 195 -50 99 -26 205 -53 235 -60 141 -32 415 -107 427 -116 7 -6 11 -15 8 -19 -6 -10 -56 0 -230 45 -847 217 -1220 306 -1263 302 -31 -3 -45 -1 -49 9 -7 18 -61 36 -253 84 -91 22 -192 48 -225 57 -33 8 -64 16 -70 18 -5 1 -21 5 -35 8 -14 4 -162 41 -330 82 -168 42 -309 80 -314 85 -16 16 4 28 36 20 18 -4 296 -73 618 -154z"
       id="path1"
       style="stroke-width:39.99999998;stroke-dasharray:none;fill:currentColor;fill-opacity:1;stroke:currentColor;stroke-opacity:1" />
    <path
       d="M582 2405 c-55 -24 -98 -63 -128 -117 -38 -69 -41 -170 -7 -234 101 -191 361 -190 462 1 25 48 29 157 7 209 -21 50 -80 111 -131 135 -53 25 -153 28 -203 6z m169 -37 c46 -13 106 -68 125 -114 20 -49 18 -138 -5 -183 -43 -83 -125 -128 -216 -118 -133 14 -217 134 -185 265 29 123 153 189 281 150z"
       id="path2"
       style="stroke-width:39.99999998;stroke-dasharray:none;fill:currentColor;fill-opacity:1;stroke:currentColor;stroke-opacity:1" />
    <path
       d="M1596 1985 c-26 -14 -75 -58 -250 -228 l-50 -48 -137 45 c-75 25 -151 46 -167 46 -46 0 -86 -39 -86 -84 0 -62 28 -78 229 -140 99 -31 191 -56 204 -56 15 0 49 24 99 73 42 39 110 104 151 142 41 39 87 82 102 97 21 19 29 37 29 60 0 38 -33 98 -54 98 -8 0 -20 2 -28 5 -7 3 -26 -2 -42 -10z m66 -52 c10 -9 18 -25 18 -36 0 -20 -247 -267 -315 -316 l-33 -23 -173 51 c-95 28 -181 59 -191 68 -34 31 -17 83 27 83 12 0 75 -18 140 -40 171 -57 167 -58 283 53 197 188 206 194 244 160z"
       id="path3"
       style="stroke-width:39.99999998;stroke-dasharray:none;fill:currentColor;fill-opacity:1;stroke:currentColor;stroke-opacity:1" />
    <path
       d="M798 1850 c-97 -37 -156 -105 -179 -204 -11 -49 -7 -70 51 -337 34 -156 72 -308 82 -338 26 -70 75 -123 141 -152 51 -23 56 -23 337 -20 l285 3 23 -31 c34 -46 316 -373 340 -395 31 -27 101 -32 146 -11 75 36 108 131 68 198 -11 19 -111 141 -221 270 -162 188 -209 238 -241 251 -31 12 -77 16 -203 16 l-163 0 -23 103 c-13 56 -33 144 -45 196 l-21 94 -110 34 c-146 44 -175 61 -202 112 -38 74 -12 156 63 198 43 25 47 22 -46 29 -19 1 -56 -6 -82 -16z m27 -57 c-19 -44 -17 -120 3 -166 26 -58 74 -91 189 -125 48 -15 96 -32 106 -38 14 -8 30 -56 62 -188 25 -105 49 -184 60 -196 17 -18 31 -20 179 -20 194 0 203 -3 294 -110 36 -41 92 -107 126 -146 33 -39 70 -82 81 -95 11 -13 46 -54 77 -91 61 -71 76 -115 59 -161 -12 -32 -65 -67 -101 -67 -49 0 -58 8 -318 316 -120 141 -81 129 -412 129 -273 1 -287 1 -326 22 -43 23 -85 66 -108 112 -7 14 -28 89 -46 166 -17 77 -45 197 -61 266 -43 188 -37 282 24 348 48 52 129 83 112 44z"
       id="path4"
       style="stroke-width:39.99999998;stroke-dasharray:none;fill:currentColor;fill-opacity:1;stroke:currentColor;stroke-opacity:1" />
    <path
       d="M1468 1543 c-27 -28 -28 -34 -28 -127 l0 -98 -52 -67 c-28 -36 -55 -72 -61 -78 -7 -10 0 -13 29 -13 35 0 42 4 64 40 14 22 28 40 31 40 4 0 9 -18 13 -40 6 -36 9 -40 36 -40 28 0 29 2 24 33 -3 17 -9 39 -12 47 -3 8 -9 86 -12 173 l-5 158 -27 -28z"
       id="path5"
       style="stroke-width:39.99999998;stroke-dasharray:none;fill:currentColor;fill-opacity:1;stroke:currentColor;stroke-opacity:1" />
    <path
       d="M1094 731 l-112 -6 -42 -54 c-33 -42 -41 -58 -33 -70 19 -30 46 -18 83 36 19 29 38 51 42 50 3 -1 39 -40 79 -86 l73 -85 -32 -122 c-43 -164 -42 -194 6 -246 35 -37 45 -42 95 -46 59 -5 109 16 133 55 11 18 96 316 108 378 9 46 -9 92 -59 151 l-47 54 -91 -2 c-51 -1 -142 -4 -203 -7z m311 -75 c50 -52 59 -87 40 -158 -47 -181 -68 -255 -82 -290 -32 -81 -133 -91 -190 -18 -17 21 -16 71 3 144 9 33 17 66 18 71 2 6 8 30 15 54 16 55 6 80 -63 159 -25 30 -46 58 -46 62 0 9 59 15 189 18 l74 2 42 -44z"
       id="path6"
       style="stroke-width:39.99999998;stroke-dasharray:none;fill:currentColor;fill-opacity:1;stroke:currentColor;stroke-opacity:1" />
    <path
       d="M1590 596 c0 -19 54 -254 62 -268 11 -22 37 -23 45 -2 3 8 -2 52 -12 96 -14 65 -26 92 -56 131 -22 27 -39 46 -39 43z"
       id="path7"
       style="stroke-width:39.99999998;stroke-dasharray:none;fill:currentColor;fill-opacity:1;stroke:currentColor;stroke-opacity:1" />
  </g>
</svg>
